<svg xmlns="http://www.w3.org/2000/svg" width="500" height="500">
<path d="M 481.953 209.517 C 487.127 247.576 357.171 484.864 308.892 478.986 C 288.709 476.528 235.949 452.121 174.093 415.834 C 164.313 426.239 123.005 456.81 106.832 450.503 C 75.901 438.443 59.162 338.141 60.368 343.226 C 37.112 324.51 21.539 307.984 19.967 297.071 C 18.315 285.587 26.121 262.393 39.313 234.16 C 27.325 157.58 21.573 85.956 28.766 76.291 C 36.791 65.505 96.012 61.231 100.826 64.629 C 103.592 66.579 107.443 84.121 111.677 109.334 C 142.784 63.737 178.325 24.802 194.29 21.636 C 208.655 18.789 305.175 67.047 306.97 67.858 C 314.554 58.826 323.524 45.72 326.224 44.745 C 334.545 41.74 399.017 57.089 404.49 67.676 C 410.237 78.787 391.862 115.131 387.535 122.737 C 441.701 158.405 478.911 187.142 481.953 209.517 Z" fill="#000"/>
<path d="M 228.088 227.488 C 228.088 221.313 223.083 216.309 216.908 216.309 C 210.734 216.309 205.729 221.313 205.729 227.488 C 205.729 233.664 210.734 238.668 216.908 238.668 C 223.083 238.668 228.088 233.664 228.088 227.488 Z M 275.177 225.625 C 275.177 219.545 270.247 214.615 264.166 214.615 C 258.085 214.615 253.155 219.545 253.155 225.625 C 253.155 231.707 258.085 236.637 264.166 236.637 C 270.247 236.637 275.177 231.707 275.177 225.625 Z M 313.706 109.431 C 307.486 114.47 300.938 119.83 289.314 116.716 C 278.202 113.741 270.002 104.688 273.731 93.848 C 277.458 83.008 292.111 78.081 307.584 82.358 C 331.754 89.039 357.236 138.272 355.588 177.551 C 389.161 195.637 405.942 225.306 405.942 260.011 C 405.942 278.488 399.687 295.8 388.771 310.682 C 396.781 313.729 401.759 316.024 407.803 323.119 C 395.099 349.798 332.088 438.667 310.203 448.5 C 270.21 422.466 271.512 385.296 272.987 360.491 C 206.265 357.761 153.219 313.818 153.219 260.011 C 153.219 217.407 192.384 175.701 228.159 166.313 C 229.467 146.291 209.572 117.931 209.572 117.931 C 209.572 117.931 198.219 127.048 183.312 125.693 C 168.405 124.339 160.416 110.896 164.143 100.055 C 167.87 89.214 182.691 81.477 198.614 83.51 C 214.493 85.539 241.244 111.918 250.708 162.035 C 272.748 155.944 325.499 164.76 335.11 169.606 C 334.535 159.819 326.812 126.368 313.706 109.431 Z M 327.285 76.547 C 329.546 73.318 334.708 68.33 336.981 67.393 C 343.785 64.583 375.698 71.791 379.854 78.273 C 381.414 83.57 375.62 97.726 364.009 112.593 C 359.587 97.208 338.859 83.211 327.285 76.547 Z M 275.455 139.385 C 277.78 139.1 281.893 133.74 283.311 132.09 C 292.048 135.835 301.654 133.518 307.712 131.763 C 311.616 135.418 311.309 138.682 311.418 142.508 C 299.038 139.634 287.496 138.554 275.455 139.385 Z M 188.563 361.063 C 177.739 374.615 131.663 429.035 115.345 420.368 C 78.061 400.564 43.921 98.846 49.331 91.574 C 54.856 84.15 85.303 83.711 87.688 85.395 C 92.817 89.016 132.319 347.316 132.319 347.316 C 132.319 347.316 139.011 337.401 148.519 323.519 C 155.043 336.681 174.97 356.016 188.563 361.063 Z" fill="#fff"/>
</svg>
